<svg xmlns="http://www.w3.org/2000/svg" width="134" height="32" fill="none"><path fill="#131416" d="M45.129 1.029c.112.192.192.544-.08.656-.88.352-1.872.528-2.864.8-.048.016-.112.048-.128.112-.496 2.016-.544 4.272-.896 6.32-.048.272-.32.336-.512.176-.528-.4-.384-1.2-.304-1.776.144-.912.256-1.824.368-2.752.048-.48.112-.976.192-1.456a.12.12 0 0 0-.176-.128c-.336.144-1.088.576-1.088.896 0 .624-.768.304-.896-.24-.352-1.584 1.856-1.888 2.944-2.224.992-.304 1.872-.512 2.8-.8.272-.08.528.192.64.416zm4.46 10.272c-1.184-.48-.064-3.584-.288-5.056-.016-.128-.176-.176-.272-.08-.768.768-1.232 2.4-2.048 3.456-.304.4-1.088-.24-.992-.672.4-1.968.544-3.952.832-5.92.096-.72.192-1.584.48-2.24.096-.224.384-.256.608-.16.448.192.368.528.256 1.184-.208 1.312-.56 2.64-.56 3.984 0 .112.144.128.192.048.72-1.312 2-1.424 2.432.208.288 1.088.064 2.16-.032 3.344-.064.96.288 2.272-.608 1.904zm5.314-.512c-.592-.32-.576-1.008-.544-1.584.016-.064-.064-.08-.112-.032-.512.576-1.28.8-1.728.16a1.167 1.167 0 0 1-.224-.672c0-1.456 1.088-4.736 2.656-4.048.032.016.128-.016.144-.064.08-.256.336-.32.576-.16.48.336.368.912.272 1.36-.128.448-.624 3.264-.624 4.256.016.48-.08.944-.416.784zm-1.488-2.816c0 .112.128.192.208.096.912-.88 1.152-1.824 1.184-2.256.016-.08-.08-.176-.16-.128-.896.464-1.152 1.696-1.232 2.288zm7.038 3.008a.703.703 0 0 1-.4-.4c-.192-.448-.032-1.024.016-1.488.096-.8.144-1.44.176-2.16 0-.096-.128-.144-.176-.048-.56.88-.896 1.856-1.344 2.8-.096.192-.352.112-.496 0-.512-.288-.448-.88-.336-1.344.112-.4.272-1.328.272-2 0-.72.368-1.136.96-.32.032.032.08.016.096-.016.112-.192.256-.448.4-.624.384-.496 1.152-.432 1.424.112a1.2 1.2 0 0 1 .112.368c.144 1.12.016 2.272-.064 3.392-.048.512-.112 1.024-.144 1.552-.032.192-.256.256-.496.176zm5.934-2.192c.56.224 1.392.4 1.328 1.184-.016.24-.208.464-.448.368-.96-.368-1.552-.688-2.528-1.168-.112-.048-.224-.128-.352-.176-.048-.016-.096.016-.112.064-.096.352-.16.784-.224 1.088-.048.272-.352.288-.528.128-.432-.4-.336-1.072-.224-1.6.224-1.12.304-1.808.384-2.672.064-.64.112-1.072.208-2.528.032-.368.416-.496.608-.352.336.272.368.704.304 1.104-.08.496-.128.992-.16 1.488-.016.144-.048.688-.048.832 0 .032.032.064.064.032.928-.928 2-1.824 2.432-2.032.48-.24 1.024.768.592 1.072-.976.704-1.824 1.536-2.672 2.384-.048.048-.032.112.032.144.4.24.8.416 1.344.64zm11.375 6.016c-.256-.192-.464-.512-.432-.832.208-1.712.496-3.024.848-5.104.016-.048-.032-.096-.096-.048-.992.768-2.224-.4-2.24-1.52-.016-.56.256-2.288 1.088-1.504.608.576-.096 1.136-.096 1.76 0 .144.176.288.4.224 1.232-.368 1.376-1.984 1.712-3.008.096-.272.48-.336.688-.16.096.08.128.176.192.256.24.32.144.656.016.992-.352.864-.88 4.816-1.04 5.824-.144.976-.336 1.968-.464 2.96-.032.288-.352.32-.576.16zm4.77-5.52c-1.776-.56-.624-5.04.4-4.096.048.048.112.064.176.048 1.136-.384 2.24.912 1.92 2-.288 1.008-1.296 2.432-2.496 2.048zm.08-1.44c.064.176.208.288.384.224.72-.224 1.408-1.456.912-1.792-.288-.192-.656.24-.944.144-.064-.016-.16.032-.192.112-.112.352-.288.992-.16 1.312zm7.524 2.528c-.912-.48-.432-1.696-.432-2.576 0-.048-.064-.08-.096-.032-.768 1.36-1.84 1.776-2.512-.048-.256-.72.128-2.992 1.04-1.712.416.592-.24.816-.24 1.44 0 .176.224.272.352.144.72-.704 1.008-1.76 1.632-2.496a.448.448 0 0 1 .608-.08c.288.208.432.624.416.96-.048.944-.208 1.872-.352 2.816-.048.336-.016.624-.016.96 0 .176.016.512-.16.608-.064.032-.16.064-.24.016zm3.246-.608c-.672-.768.032-1.392.704-.64.672.768-.048 1.392-.704.64zm.448-4.448c.128-.768.56-3.152.688-3.632.048-.208.336-.24.496-.176.336.128.656.448.576.88-.192 1.12-.784 4.288-1.024 5.408-.064.288-.304.304-.608.128-.88-.528-.464-.72-.128-2.608zM.842 25.349c-.192-.112-.432-.4-.352-.64.224-.816.608-4.432.752-5.248.064-.416-.112-1.232.272-1.424.352-.16.8.336.8.704 0 1.264-.544 5.344-.896 6.56-.096.272-.432.176-.576.048zm2.976-7.024c.176-.336.352-.688.288-1.072-.032-.24.048-.576.352-.432.912.448.56 1.744.096 2.4-.16.176-.464.016-.592-.144-.224-.24-.288-.464-.144-.752zm1.552 7.664c-.752-.48-.24-1.12 0-2.096.224-.944.4-2.112.624-3.184l.656-3.008c.048-.256.416-.16.576-.064.208.128.4.304.336.656a72.608 72.608 0 0 1-1.216 5.904c-.128.576-.272 1.152-.416 1.728-.064.272-.416.16-.56.064zm1.936.688.624-3.072c.416-1.872.704-3.808 1.04-5.744.128-.624.08-1.68.832-1.232.624.368.24.992.144 1.664-.448 2.848-1.008 5.504-1.616 8.4-.096.448.032 1.632-.688 1.296-.544-.256-.432-.832-.336-1.312zm11.026 4.304c-.432-.24-.704-.912.096-.912 1.888 0 1.84-3.392 1.744-4.848 0-.032-.016-.048-.048-.016-.624.688-1.744.832-1.936-.272-.208-1.168.528-2.432 1.088-3.472.24-.448.832-1.312 1.488-.864.336.224.864.672.64 1.104-.112.24-.352.128-.528 0a.29.29 0 0 0-.368.032c-.288.288-.768.976-1.184 2.208-.032.112.096.176.16.08.368-.464.992-1.232 1.296-1.232.352 0 .752.592.56.912-.192.304-.304.576-.288.912.048 1.856.288 3.888-.656 5.568-.4.704-1.248 1.248-2.064.8zm7.213-5.024c-.784-.112-1.296-.496-1.632-1.232a.314.314 0 0 0-.144-.144c-.656-.32-.8-1.024-.048-1.312a.28.28 0 0 0 .192-.208c1.008-4.864 5.696-1.056 1.136 1.088-.096.048-.192.128-.208.24-.016.144.016.304.208.368.336.112.64-.096.928-.272.288-.176.704-.384.976-.192 1.152.784-.448 1.808-1.408 1.664zm-.48-3.296c-.032.08.048.128.112.096.432-.256.672-.56.8-.752.096-.144-.064-.32-.224-.24-.32.16-.544.528-.688.896zm8.372-1.136c-.112.224-.352.16-.608.192-.272.032-.576.048-.896.144-.048 0-.08.048-.096.096-.08 1.424-.432 2.704-.704 4.048-.016.16-.304.32-.544.144-.24-.16-.432-.448-.384-.72.192-.976.576-2.848.608-3.296 0-.048-.048-.08-.096-.08-.16 0-.56.16-.64.336-.064.128-.16.208-.272.208h-.016c-.32-.016-.656-.48-.624-.784.032-.24.224-.4.432-.496.496-.24.704-.32 1.312-.384a.183.183 0 0 0 .128-.112c.096-.544.304-1.744.32-1.872.144-1.408 1.264-.544 1.072.08-.128.448-.272 1.248-.352 1.616 0 .048.048.096.112.096.304.032.736-.08 1.008.112.224.144.304.576.24.672zm8.314 4.896c-.224-.048-.336-.288-.4-.512-.032-.176-.048-.432.096-.576.048-.048.096-.112.096-.176 0-.144.128-1.024.144-1.312.08-.704.176-1.856.24-2.544.048-.624.112-1.248.192-1.872.032-.272.16-1.264.368-1.568.096-.112.224-.16.352-.112.928.384.064 2.256.032 3.216 0 .064.064.096.128.048.352-.304.816-.528 1.28-.336.832.352 1.248 1.68 1.2 2.592-.032.608-.304 1.136-.672 1.6-.368.448-.832.784-1.312 1.104-.496.32-1.136.608-1.744.448zm.784-1.616c-.032.112.032.144.08.112 1.024-.448 2.4-1.616 1.872-2.752a.467.467 0 0 0-.432-.24c-.784-.016-1.424 2.272-1.52 2.88zm7.095 1.984c-.592-.32-.576-1.008-.544-1.584.016-.064-.064-.08-.112-.032-.512.576-1.28.8-1.728.16a1.167 1.167 0 0 1-.224-.672c0-1.456 1.088-4.736 2.656-4.048.032.016.128-.016.144-.064.08-.256.336-.32.576-.16.48.336.368.912.272 1.36-.128.448-.624 3.264-.624 4.256.016.48-.08.944-.416.784zm-1.488-2.816c0 .112.128.192.208.096.912-.88 1.152-1.824 1.184-2.256.016-.08-.08-.176-.16-.128-.896.464-1.152 1.696-1.232 2.288zm7.006 2.464c-5.424 0-.384-8.608.288-6.48.112.368.016.736-.24 1.008-.8.864-1.488 2.176-1.424 3.328.032.448.336.816.784.928.432.112.816.24.944.72.064.24-.048.496-.352.496zm5.794-1.648c.56.224 1.392.4 1.328 1.184-.016.24-.208.464-.448.368-.96-.368-1.552-.688-2.528-1.168-.112-.048-.224-.128-.352-.176-.048-.016-.096.016-.112.064-.096.352-.16.784-.224 1.088-.048.272-.352.288-.528.128-.432-.4-.336-1.072-.224-1.6.224-1.12.304-1.808.384-2.672.064-.64.112-1.072.208-2.528.032-.368.416-.496.608-.352.336.272.368.704.304 1.104-.08.496-.128.992-.16 1.488-.016.144-.048.688-.048.832 0 .032.032.064.064.032.928-.928 2-1.824 2.432-2.032.48-.24 1.024.768.592 1.072-.976.704-1.824 1.536-2.672 2.384-.048.048-.032.112.032.144.4.24.8.416 1.344.64zm15.023.08c.88-.704 1.808-1.712 1.808-2.832 0-.032-.016-.048-.016-.08 0-.144-.208-.208-.32-.112-.848.688-1.408 1.792-1.68 2.88-.032.128.112.224.208.144zm-5.6-1.776a.431.431 0 0 1 .224-.592c.368-.16 1.248-.336 1.552-.4.128-.016.192-.112.208-.256.112-.752.24-1.376.24-2.128 0-.272.32-.32.528-.224.224.096.496.368.496.656 0 .528-.096 1.056-.16 1.568-.016.064.048.112.096.096 1.088-.224 2.064-.448 3.12-.88.512-.208 1.12-.128 1.52.256.24.224.464.496.56.8.272.912-.224 1.808-.768 2.496-.64.832-1.872 2.272-2.96 1.408-.992-.784-.112-2.416.368-3.392.016-.032-.016-.096-.096-.08-.704.144-1.216.304-1.92.496-.048.016-.08.032-.096.096-.128.848-.288 1.712-.384 2.56-.048.384.048 1.056-.56.8-.256-.112-.496-.352-.496-.64 0-.8.16-1.536.272-2.4 0-.048-.032-.096-.08-.08-1.04.32-1.312.464-1.664-.16zm18.576 7.712c-.256-.192-.464-.512-.432-.832.208-1.712.496-3.024.848-5.104.016-.048-.032-.096-.096-.048-.992.768-2.224-.4-2.24-1.52-.016-.56.256-2.288 1.088-1.504.608.576-.096 1.136-.096 1.76 0 .144.176.288.4.224 1.232-.368 1.376-1.984 1.712-3.008.096-.272.48-.336.688-.16.096.08.128.176.192.256.24.32.144.656.016.992-.352.864-.88 4.816-1.04 5.824-.144.976-.336 1.968-.464 2.96-.032.288-.352.32-.576.16zm4.77-5.52c-1.776-.56-.624-5.04.4-4.096.048.048.112.064.176.048 1.136-.384 2.24.912 1.92 2-.288 1.008-1.296 2.432-2.496 2.048zm.08-1.44c.064.176.208.288.384.224.72-.224 1.408-1.456.912-1.792-.288-.192-.656.24-.944.144-.064-.016-.16.032-.192.112-.112.352-.288.992-.16 1.312zm7.524 2.528c-.912-.48-.432-1.696-.432-2.576 0-.048-.064-.08-.096-.032-.768 1.36-1.84 1.776-2.512-.048-.256-.72.128-2.992 1.04-1.712.416.592-.24.816-.24 1.44 0 .176.224.272.352.144.72-.704 1.008-1.76 1.632-2.496a.448.448 0 0 1 .608-.08c.288.208.432.624.416.96-.048.944-.208 1.872-.352 2.816-.048.336-.016.624-.016.96 0 .176.016.512-.16.608-.064.032-.16.064-.24.016zm9.107.224c-.096-.208-.16-.576.112-.624.24-.048.896-.48 1.088-.624.304-.256.96-.64.144-2.048-.176-.288-.256-.592-.304-.912-.096-.624.176-1.248.48-1.792.208-.368.56-1.072 1.04-.848a.81.81 0 0 1 .464.48c.144.352.048.992-.336.976a.313.313 0 0 0-.24.112c-1.184 1.872.48 2.208.288 3.696-.032.288-.176.56-.336.784-.624.752-1.888 1.808-2.4.8zm5.675-1.52c-1.088-.896-1.088-2.864-.16-3.904.096-.112.192-.208.32-.288.24-.176.528-.384.816-.224.064.048.144.064.24.016.576-.24 1.216.048 1.6.544.272.352.352.832.24 1.28-.256 1.088-.896 2.72-2.032 2.896-.368.064-.736-.08-1.024-.32zm.272-2.432c-.192.544-.32 1.344.112 1.744.032.032.128.064.224.016.992-.496 1.36-1.648 1.568-2.656.016-.048-.032-.128-.08-.128-.88-.112-.928 1.712-1.648.992-.048-.048-.144-.048-.176.032zm3.936 3.056c-1.504-1.424.64-7.472 2.432-4.704.048.08.096.128.16.144 2.928.848-.672 6.384-2.592 4.56zm.384-.656c.624.368 2.4-1.648 2.4-2.832a.108.108 0 0 0-.064-.096c-.496-.176-1.056.24-1.456-.16-.048-.048-.112-.032-.144.016-.512.912-1.168 2.832-.736 3.072zm7.749 1.936a.703.703 0 0 1-.4-.4c-.192-.448-.032-1.024.016-1.488.096-.8.144-1.44.176-2.16 0-.096-.128-.144-.176-.048-.56.88-.896 1.856-1.344 2.8-.096.192-.352.112-.496 0-.512-.288-.448-.88-.336-1.344.112-.4.272-1.328.272-2 0-.72.368-1.136.96-.32.032.032.08.016.096-.016.112-.192.256-.448.4-.624.384-.496 1.152-.432 1.424.112a1.2 1.2 0 0 1 .112.368c.144 1.12.016 2.272-.064 3.392-.048.512-.112 1.024-.144 1.552-.032.192-.256.256-.496.176zm3.182-1.216c-.672-.768.032-1.392.704-.64.672.768-.048 1.392-.704.64zm.448-4.448c.128-.768.56-3.152.688-3.632.048-.208.336-.24.496-.176.336.128.656.448.576.88-.192 1.12-.784 4.288-1.024 5.408-.064.288-.304.304-.608.128-.88-.528-.464-.72-.128-2.608z"/></svg>